<svg width="43" height="50" viewBox="0 0 43 50" fill="none" xmlns="http://www.w3.org/2000/svg">
<path fill-rule="evenodd" clip-rule="evenodd" d="M0.155194 41.265C1.02289 35.1741 4.2555 30.6314 9.00233 28.8109C9.80197 28.5047 10.5165 28.2665 10.6016 28.2495C10.6867 28.2495 11.4863 28.5897 12.3881 28.9981C15.3655 30.3592 17.5432 30.8356 20.7418 30.8356C21.4014 30.8356 22.0643 30.8001 22.7246 30.7306C25.0745 33.5118 28.588 35.278 32.5141 35.278C34.8064 35.278 36.9582 34.6759 38.8197 33.6212C40.0435 35.0043 40.6781 36.181 41.3794 38.2025L41.9239 39.7337V44.6677C41.9069 49.4145 41.7027 52.2048 41.3114 52.9534C41.1582 53.2426 40.7669 53.2596 34.9312 53.2596H28.7212L28.7723 47.0666L28.8233 40.8566L29.3337 40.3292C30.2695 39.3424 31.8517 39.2403 32.7024 40.091C32.9576 40.3292 33.2809 40.9587 33.451 41.4861C33.8424 42.6941 34.4208 43.1195 35.1694 42.7111C36.2073 42.1157 35.6798 39.7337 34.2167 38.4577C31.9198 36.4331 28.2108 37.1647 26.9348 39.8869C26.5265 40.7546 26.5265 40.8056 26.5265 46.9986V53.2596H13.7832H1.03991L0.852757 52.6982C0.155194 50.5034 -0.236121 44.0382 0.155194 41.265Z" fill="#092421"/>
<path fill-rule="evenodd" clip-rule="evenodd" d="M21.305 28.6738C20.2849 26.8353 19.704 24.7195 19.704 22.4679C19.704 15.3931 25.4393 9.65786 32.5141 9.65786C33.0639 9.65786 33.6057 9.6925 34.1373 9.75972C33.4273 7.60427 32.1721 5.67466 30.3715 3.97088C28.8402 2.5077 27.2239 1.53792 25.2333 0.874384C22.8514 0.091753 20.8268 -0.129425 18.615 0.193836C12.8133 1.02751 8.13453 5.2299 6.6033 10.9805C6.09289 12.9031 6.09289 16.0506 6.6033 17.9562C7.86231 22.754 11.3331 26.446 16.148 28.1134C17.7133 28.6578 17.8324 28.6748 20.5716 28.6748C20.8401 28.6748 21.0833 28.6746 21.305 28.6738Z" fill="#092421"/>
<path d="M31.4862 12.0098C29.0334 12.2802 26.9271 13.2625 25.2055 14.9415C23.522 16.5825 22.4936 18.5737 22.128 20.9C22.0175 21.6006 22.0061 23.2454 22.1089 23.9002C22.3679 25.5641 22.9012 26.9576 23.7924 28.2863C26.1958 31.8691 30.4883 33.609 34.7047 32.7181C38.5783 31.8957 41.6901 28.9107 42.6651 25.0881C43.5754 21.5206 42.6042 17.8123 40.0637 15.1814C38.4259 13.4871 36.3463 12.421 33.9734 12.0631C33.5125 11.9946 31.9395 11.9603 31.4862 12.0098ZM33.6763 18.9583V21.2998H35.9997H38.3231V22.4611V23.6223H35.9997H33.6763V25.9638V28.3054H32.5146H31.3529V25.9638V23.6223H29.0105H26.6681V22.4611V21.2998H29.0105H31.3529V18.9583V16.6168H32.5146H33.6763V18.9583Z" fill="#092421"/>
</svg>
