<svg width="147" height="176" viewBox="0 0 147 176" fill="none" xmlns="http://www.w3.org/2000/svg">
<path d="M49.5999 4.86767C36.9172 10.1475 17.8931 27.2292 17.8931 33.1301C17.8931 40.2734 40.405 38.0994 48.9658 30.0244C54.673 24.7446 60.0632 23.1917 73.063 23.1917C85.1116 23.1917 91.77 25.0552 98.4284 30.0244C108.575 37.7888 128.867 39.9628 128.867 33.1301C128.867 26.9186 109.843 10.1475 96.526 4.86767C81.6238 -1.34386 63.868 -1.34386 49.5999 4.86767Z" fill="black"/>
<path d="M4.45253 53.0277C-1.34808 58.6793 -0.70357 110.172 5.09704 115.195C8.3196 117.707 29.3334 118.335 49.9578 117.393C68.2724 116.429 70.5017 111.419 73.4154 111.428C76.3291 111.436 81.0557 116.474 100.713 117.393C132.617 118.649 141.734 118.649 144.312 111.428C147.857 100.438 146.568 58.6793 142.056 53.6556C137.222 47.69 10.5754 47.0621 4.45253 53.0277ZM125.621 82.5416V98.2406C125.621 98.2406 95.6511 98.8686 85.6611 94.4729C75.6712 89.7632 73.7376 89.7632 61.8141 94.4729C44.7346 101.066 18.6318 98.2406 18.6318 98.2406V67.2352C18.6318 67.2352 44.4123 67.2352 73.4154 67.2352L125.621 67.2352V82.5416Z" fill="#2DA49A"/>
<path d="M14.8527 130.959C14.8527 132.598 19.92 140.464 25.6207 148.657C51.9074 185.692 97.1964 184.708 121.899 146.363L132.667 130.304L121.266 129.321C111.448 128.337 108.281 129.976 99.0966 139.808C89.9121 149.968 86.4283 151.607 74.0768 151.607C61.4086 151.607 57.9248 149.968 48.4236 140.136C39.8725 131.287 34.4885 128.665 25.9375 128.665C19.92 128.665 14.8527 129.648 14.8527 130.959Z" fill="black"/>
</svg>
